<?xml version="1.0" encoding="UTF-8" standalone="no"?>
<!-- Created with Inkscape (http://www.inkscape.org/) -->

<svg
   width="117.92259mm"
   height="198.6492mm"
   viewBox="0 0 117.92259 198.6492"
   version="1.1"
   id="svg5"
   xml:space="preserve"
   xmlns="http://www.w3.org/2000/svg"
   xmlns:svg="http://www.w3.org/2000/svg"><defs
     id="defs2" /><g
     id="layer2"
     style="display:inline"
     transform="translate(-13.901753,-36.795825)"><g
       id="g1593"><path
         id="path412"
         style="display:inline;fill:#800080;stroke:#000000;stroke-width:3;stroke-linecap:round;stroke-linejoin:round;stroke-dasharray:none"
         d="m 44.761113,137.63658 -17.801003,38.27105 -11.558805,17.1685 9.000234,-23.75914 15.171375,-30.35781 z m -17.809078,38.27893 30.475216,24.70982 6.326897,33.31973 -27.170178,-4.38992 -21.170067,-36.46495 z m 59.469831,-37.0745 7.376642,37.04571 28.224302,20.8766 6.74704,-22.89776 -21.49651,-36.41806 z m -28.984882,61.79738 6.319902,33.28786 37.955744,-0.26842 20.32054,-36.87635 -28.237018,-20.90227 z m -12.757166,-63.05309 41.744124,1.24984 7.368706,37.04851 -36.356641,24.73513 -30.455848,-24.68691 z" /><g
         id="g1584"><path
           id="path1511"
           style="fill:#aa8800;stroke:#806600;stroke-width:0.499999;stroke-linecap:round;stroke-linejoin:round;stroke-dasharray:none"
           d="m 36.989969,208.63965 7.17622,8.19002 -0.973013,-5.73135 z m -10.105247,-10.0588 15.496612,7.66123 -0.82916,-3.74004 4.219551,1.96851 1.095058,3.57753 4.128643,2.04426 1.035949,5.75549 -4.347588,-2.64431 0.826493,11.41408 -20.525341,-20.61025 z" /><path
           style="fill:#aa8800;stroke:#806600;stroke-width:0.499999;stroke-linecap:round;stroke-linejoin:round;stroke-dasharray:none"
           d="m 78.021491,197.52809 13.302972,23.08412 4.689488,-3.37089 c 0.582875,-4.784 2.514313,-8.0306 4.925889,-10.72983 l -2.609401,-4.15452 -5.815002,7.31373 -8.858837,-16.15584 z"
           id="path1568" /><path
           style="fill:#aa8800;stroke:#806600;stroke-width:0.499999;stroke-linecap:round;stroke-linejoin:round;stroke-dasharray:none"
           d="m 102.96902,146.44991 12.89759,10.4832 0.4542,2.89922 c -4.87481,3.49823 -7.50363,9.27291 -7.39582,16.15345 l -3.98746,-4.2104 c 0.78657,-4.991 2.56341,-9.63251 6.52987,-13.5013 l -8.70233,-7.34871 z"
           id="path1570" /><path
           style="fill:#aa8800;stroke:#806600;stroke-width:0.499999;stroke-linecap:round;stroke-linejoin:round;stroke-dasharray:none"
           d="m 39.668278,170.31795 c 2.543994,-3.72733 4.518939,-7.55002 4.004524,-11.78989 l 4.438248,-2.71065 15.827848,25.27934 -5.461339,3.45637 -10.866633,-17.86225 -5.291333,7.77335 z"
           id="path1572" /><path
           id="path1574"
           style="fill:#aa8800;stroke:#806600;stroke-width:0.499999;stroke-linecap:round;stroke-linejoin:round;stroke-dasharray:none"
           d="m 61.567075,155.55157 c 1.633869,5.67147 4.174625,10.61884 9.447262,14.54057 1.878426,1.39715 5.519227,-1.04164 5.141341,-3.66758 -0.639876,-4.44649 -3.084319,-8.7436 -8.414046,-14.09813 -2.459502,-2.47095 -5.723717,0.47865 -6.174557,3.22514 z m -5.681731,-0.58889 c 0.351764,-2.8981 2.155901,-5.88147 4.626856,-7.43617 2.519511,-1.58525 6.073784,-1.97242 8.877205,-0.97153 3.844634,1.37263 6.523566,5.21348 8.577693,8.74135 2.395854,4.11478 4.875371,9.06732 3.928234,13.73363 -0.460007,2.26634 -2.307035,4.32909 -4.357483,5.39847 -2.620106,1.36647 -6.04997,1.5813 -8.843534,0.61786 -3.765374,-1.29859 -6.703298,-4.66314 -8.872495,-8.00364 -2.306466,-3.55189 -4.446772,-7.87577 -3.936476,-12.07997 z" /></g></g><g
       id="g1692"
       transform="translate(1.5875,0.52916667)"><path
         id="path530"
         style="display:inline;fill:#ffd42a;stroke:#1a1a1a;stroke-width:3;stroke-linecap:round;stroke-linejoin:round;stroke-dasharray:none"
         d="M 51.179175,37.766618 38.360966,39.715922 17.695561,74.953564 16.622251,96.716481 36.809793,74.113477 Z m 0.01523,0.0023 L 36.832453,74.133437 72.167324,98.008512 108.97237,75.106639 94.250621,37.792497 Z m 43.043712,0.04897 14.749293,37.27486 19.74466,23.019607 -2.64313,-22.80951 -19.50526,-34.667651 z M 36.825169,74.112682 16.610244,96.716277 37.216839,134.45624 72.60105,135.96381 72.146725,98.020498 Z m 72.156061,0.993502 -36.826517,22.897197 0.446041,37.932849 33.759146,-1.62882 22.37698,-36.188873 z" /><g
         id="g1680"><path
           style="fill:#892ca0;stroke:#672178;stroke-width:0.499999;stroke-linecap:round;stroke-linejoin:round;stroke-dasharray:none"
           d="m 34.30919,105.37908 7.259968,12.91423 11.929896,-1.3786 c 0,0 0.04873,-0.08 -2.03993,-4.52008 -1.746227,-1.74623 -5.096954,-3.54131 -5.060201,-6.2117 0.01875,-1.36209 1.320564,-2.89133 2.667294,-3.09619 1.968789,-0.29948 4.141499,1.39979 5.068858,3.16213 0.939591,1.78558 1.427047,3.6472 -0.267729,6.04719 2.786196,4.2545 2.743882,4.25902 2.743882,4.25902 0,0 2.39935,-2.30748 2.895063,-3.82879 0.584424,-1.79356 0.498081,-3.86873 -0.09857,-5.65826 -0.744589,-2.23324 -2.342895,-4.20058 -4.139134,-5.72219 -1.547723,-1.31109 -3.434549,-2.476723 -5.449805,-2.707251 -2.205092,-0.252243 -4.944638,-0.06545 -6.478093,1.539101 -1.466058,1.53403 -1.52637,4.15865 -1.189461,6.25366 0.283908,1.76543 1.575802,3.227 2.604024,4.68991 0.446463,0.63521 1.533112,1.75355 1.533112,1.75355 l -3.200087,0.41691 -5.666251,-9.46972 z"
           id="path1595" /><path
           style="fill:#892ca0;stroke:#672178;stroke-width:0.499999;stroke-linecap:round;stroke-linejoin:round;stroke-dasharray:none"
           d="m 84.668856,111.28045 c 1.625769,-2.40853 2.431843,-5.19629 2.765047,-8.20283 l 2.657202,-1.80624 7.104637,19.27362 -3.496395,2.13094 -4.45897,-12.15533 c -0.562074,1.52263 -1.563694,2.91824 -2.780114,4.25177 z"
           id="path1651" /><path
           id="path1655"
           style="fill:#892ca0;stroke:#672178;stroke-width:0.499999;stroke-linecap:round;stroke-linejoin:round;stroke-dasharray:none"
           d="m 102.27231,93.802543 c -0.47933,0.003 -0.9533,0.0783 -1.3901,0.236678 -1.483265,0.537823 -2.671477,1.85734 -3.472135,3.216858 -0.597058,1.013803 -0.797105,2.252015 -0.842326,3.427701 -0.0728,1.89276 0.374761,3.79499 0.928626,5.60637 0.869514,2.8437 1.816742,5.82093 3.713465,8.11114 0.50391,0.60845 1.17101,1.16317 1.93322,1.37097 0.98482,0.26849 2.1185,0.15572 3.05149,-0.25838 0.89785,-0.3985 1.48037,-1.29615 2.15439,-2.01073 0.65611,-0.6956 1.50554,-1.30866 1.83141,-2.20762 0.66366,-1.83071 0.33291,-3.92043 0.0176,-5.84202 -0.27491,-1.67529 -0.97235,-3.26148 -1.64227,-4.82141 -0.70382,-1.638854 -1.41016,-3.31457 -2.48461,-4.738212 -0.48853,-0.647313 -1.01769,-1.357503 -1.76268,-1.677933 -0.6238,-0.268307 -1.33548,-0.417784 -2.03605,-0.413412 z m -0.0734,3.994588 c 0.34291,-0.0066 0.70817,0.161189 0.95033,0.397909 1.94833,1.90459 2.26633,4.99493 2.87941,7.64966 0.26844,1.16249 0.44392,2.37542 0.3359,3.56361 -0.0315,0.3469 -0.13202,0.6923 -0.28422,1.00562 -0.1278,0.26309 -0.24569,0.5984 -0.51625,0.70952 -0.5155,0.21171 -1.21407,0.0769 -1.65003,-0.27027 -2.29588,-1.82809 -2.53637,-5.32453 -3.3321,-8.14937 -0.15254,-0.5415 -0.28728,-1.10319 -0.27078,-1.66553 0.0221,-0.75272 0.0973,-1.564009 0.49248,-2.205036 0.28248,-0.458234 0.71988,-0.929427 1.25005,-1.022677 0.0476,-0.0084 0.0962,-0.01249 0.14521,-0.01344 z" /><path
           style="fill:#892ca0;stroke:#672178;stroke-width:0.499999;stroke-linecap:round;stroke-linejoin:round;stroke-dasharray:none"
           d="m 116.72774,76.710169 c -0.27667,-1.525938 -1.16733,-3.267201 -2.36194,-5.11506 l 6.55526,5.652516 -1.17181,-3.906203 -10.73694,-8.046087 0.5626,2.735889 c 2.07309,2.104485 4.33009,4.03715 5.10832,7.351377 z"
           id="path1662" /><path
           style="fill:#892ca0;stroke:#672178;stroke-width:0.499999;stroke-linecap:round;stroke-linejoin:round;stroke-dasharray:none"
           d="m 109.80792,62.059785 2.2056,1.486241 c -0.4328,-1.349769 -0.97994,-3.128104 -2.25688,-4.477873 l 5.97985,4.892869 -0.88552,-2.55774 -10.39811,-8.601104 0.33824,2.128422 c 2.05587,2.499027 3.98819,4.958559 5.01682,7.129185 z"
           id="path1664" /><path
           style="fill:#892ca0;stroke:#672178;stroke-width:0.499999;stroke-linecap:round;stroke-linejoin:round;stroke-dasharray:none"
           d="m 55.686142,67.798613 3.010164,3.741042 c 1.383829,-1.269488 2.342233,-2.763106 2.154725,-4.860436 l 9.849903,12.733388 3.560677,-2.624474 -14.7247,-19.198269 -3.527007,1.593381 c 0.372794,2.738211 1.025323,5.39869 -0.323762,8.615368 z"
           id="path1666" /><path
           style="fill:#892ca0;stroke:#672178;stroke-width:0.499999;stroke-linecap:round;stroke-linejoin:round;stroke-dasharray:none"
           d="m 71.862946,58.36077 c 0,0 -0.7253,-1.416078 -0.513545,-2.107396 0.169729,-0.554115 0.713181,-1.088 1.287042,-1.168839 0.835764,-0.117733 1.680636,0.515766 2.271752,1.118214 0.916141,0.933703 1.45871,2.261558 1.665901,3.553142 0.306833,1.912733 -0.661467,3.832707 -0.697442,5.76956 -0.03426,1.844239 -0.08371,3.751832 0.459624,5.514551 0.47789,1.550397 2.396548,4.23622 2.396548,4.23622 l 11.0437,-6.613459 -2.346155,-3.919521 -6.645952,3.495924 c 0,0 0.340187,-4.072149 0.345895,-6.1131 0.0046,-1.64354 0.267869,-3.364754 -0.251005,-4.924245 -0.473953,-1.42448 -1.48856,-2.639619 -2.511216,-3.738687 -1.198237,-1.287769 -2.449993,-2.827642 -4.157578,-3.249867 -1.450877,-0.358751 -3.057433,0.165976 -4.412348,0.796809 -1.431403,0.666445 -2.991382,1.588043 -3.644736,3.025468 -0.636691,1.400765 -0.354455,3.149046 0.1142,4.614611 0.296661,0.927711 0.719722,2.090741 1.635998,2.421035 3.922694,-2.682103 0.01708,0.07284 3.959317,-2.71042 z"
           id="path1668" /><path
           style="fill:#892ca0;stroke:#672178;stroke-width:0.499999;stroke-linecap:round;stroke-linejoin:round;stroke-dasharray:none"
           d="m 28.915828,71.638149 -0.03463,2.996625 c 0,0 -1.059627,1.13658 -1.743398,1.467345 -0.617669,0.298789 -1.465365,0.820235 -2.016787,0.411917 -0.761956,-0.564214 -0.357329,-1.88768 -0.268561,-2.831627 0.114578,-1.218411 0.52688,-2.407083 1.021964,-3.526255 0.487697,-1.102472 1.191522,-2.101178 1.893079,-3.081541 0.562083,-0.785461 1.152707,-1.56126 1.847458,-2.232234 0.334799,-0.323341 1.106046,-0.852303 1.106046,-0.852303 0,0 1.065572,-2.027278 1.588056,-3.046243 0.665557,-1.297992 1.162033,-2.69312 1.970333,-3.907369 0.449005,-0.674507 0.991722,-1.436638 1.558169,-2.016037 0.683164,-0.698787 1.247701,-1.596146 2.206177,-1.786772 0.429319,-0.08539 0.98963,0.0752 1.239078,0.434893 0.526296,0.758902 0.223928,1.894711 0.11372,2.811648 -0.170926,1.422126 -0.59292,2.814614 -1.10288,4.15312 -0.502161,1.318035 -1.329301,2.489794 -2.063242,3.69425 -0.515988,0.846778 -1.643166,2.479817 -1.643166,2.479817 l -0.193635,-2.700758 c 0,0 0.590799,-0.651589 0.844309,-1.009644 0.456679,-0.645008 0.912064,-1.306874 1.210273,-2.038763 0.260061,-0.638262 0.538223,-1.266417 0.608633,-1.952021 0.04784,-0.465836 0.09115,-1.07125 -0.167911,-1.46135 -0.157738,-0.237523 -0.498837,-0.421143 -0.77688,-0.357971 -0.582219,0.132283 -0.910967,0.831679 -1.257223,1.318079 -0.610432,0.857499 -1.065235,1.813257 -1.523288,2.760949 -0.3859,0.798409 -0.675446,1.643362 -0.92556,2.494138 -0.08431,0.286769 -0.192638,0.875776 -0.192638,0.875776 l 0.685472,0.602223 -2.317983,2.872087 c 0,0 -0.0862,-1.152286 -0.454872,-1.540603 -0.148581,-0.156499 -0.404059,-0.277981 -0.610547,-0.215284 -0.650583,0.197538 -0.890215,1.039749 -1.221761,1.633345 -0.426458,0.763525 -0.701578,1.605825 -0.964687,2.439858 -0.142266,0.450972 -0.338959,0.906973 -0.329832,1.379765 0.0093,0.483202 -0.07469,1.267802 0.391268,1.396084 0.425603,0.117173 0.666105,-0.582919 0.959694,-0.912574 0.208724,-0.234366 0.565752,-0.75257 0.565752,-0.75257 z"
           id="path1670" /></g></g></g></svg>
